<svg width="240" height="240" viewBox="0 0 240 240" fill="none" xmlns="http://www.w3.org/2000/svg">
  <rect width="240" height="240" rx="36" fill="#EEF4F3"/>
  <circle cx="120" cy="120" r="88" fill="#DCEFF3"/>
  <rect x="101" y="52" width="38" height="24" rx="10" fill="#115E59"/>
  <path d="M86 82C86 70.9543 94.9543 62 106 62H134C145.046 62 154 70.9543 154 82V176C154 187.046 145.046 196 134 196H106C94.9543 196 86 187.046 86 176V82Z" fill="#78BCD9"/>
  <path d="M98 94C98 86.268 104.268 80 112 80H128C135.732 80 142 86.268 142 94V172C142 179.732 135.732 186 128 186H112C104.268 186 98 179.732 98 172V94Z" fill="#A8DBF0"/>
  <path d="M100 122C110.304 117.56 129.696 117.56 140 122" stroke="#115E59" stroke-width="8" stroke-linecap="round"/>
  <path d="M100 144C110.304 139.56 129.696 139.56 140 144" stroke="#115E59" stroke-width="8" stroke-linecap="round"/>
</svg>
